<?xml version="1.0" standalone="no"?>
<!DOCTYPE svg PUBLIC "-//W3C//DTD SVG 20010904//EN"
 "http://www.w3.org/TR/2001/REC-SVG-20010904/DTD/svg10.dtd">
<svg version="1.0" xmlns="http://www.w3.org/2000/svg"
 width="360.000000pt" height="360.000000pt" viewBox="0 0 360.000000 360.000000"
 preserveAspectRatio="xMidYMid meet">
<metadata>
Created by potrace 1.14, written by Peter Selinger 2001-2017
</metadata>
<g transform="translate(0.000000,360.000000) scale(0.100000,-0.100000)"
fill="#000000" stroke="none">
<path d="M1590 3390 c-84 -17 -226 -62 -265 -83 -11 -6 -22 -12 -25 -12 -3 0
-21 -9 -40 -20 -19 -11 -38 -19 -41 -20 -9 0 -132 -81 -158 -104 -13 -12 -27
-21 -31 -21 -3 0 -46 -38 -94 -85 -55 -52 -85 -89 -80 -96 4 -7 3 -9 -4 -5 -6
3 -20 -6 -31 -21 -11 -16 -25 -33 -31 -40 -27 -32 -110 -161 -110 -171 0 -5
-4 -12 -9 -14 -13 -5 -132 -255 -146 -308 -1 -3 -4 -12 -8 -20 -10 -28 -30
-95 -32 -110 -1 -8 -5 -22 -8 -30 -8 -22 -27 -109 -33 -155 -3 -22 -7 -51 -9
-65 -17 -91 -21 -270 -11 -405 13 -167 26 -244 60 -360 1 -5 8 -30 15 -55 7
-25 14 -53 17 -63 3 -9 10 -15 15 -12 5 3 6 -1 3 -10 -3 -8 3 -35 15 -60 12
-25 21 -49 21 -55 0 -5 5 -10 11 -10 5 0 8 -4 5 -8 -3 -5 20 -53 51 -108 30
-54 61 -109 67 -121 6 -13 14 -23 19 -23 4 0 7 -5 7 -10 0 -6 5 -16 10 -23 6
-7 19 -23 30 -37 60 -75 82 -100 154 -172 81 -82 214 -188 234 -188 7 0 12 -4
12 -8 0 -18 236 -126 257 -118 8 3 12 2 9 -3 -3 -5 9 -12 27 -16 17 -4 37 -9
42 -10 91 -26 199 -39 305 -38 100 1 212 13 226 24 6 5 13 7 15 4 13 -12 279
80 279 96 0 5 3 8 8 7 9 -2 85 37 127 66 103 71 151 111 240 202 55 56 105
108 110 115 48 64 105 149 105 158 0 6 4 11 9 11 5 0 22 26 37 58 15 31 30 59
33 62 9 7 52 102 54 120 2 8 6 20 9 26 17 27 68 182 83 254 2 14 9 45 14 70
37 179 44 449 17 655 -10 78 -18 120 -24 125 -4 3 -8 22 -9 42 -1 21 -13 73
-27 117 -14 44 -26 87 -26 96 0 8 -4 15 -8 15 -4 0 -8 10 -9 22 -1 11 -8 25
-15 29 -7 5 -9 9 -4 9 4 0 1 11 -8 25 -9 14 -14 25 -12 25 8 0 -86 175 -95
178 -5 2 -9 8 -9 14 0 12 -61 102 -72 106 -4 2 -8 8 -8 14 0 38 -291 328 -329
328 -6 0 -11 4 -11 9 0 16 -240 148 -283 155 -6 1 -18 5 -24 9 -7 5 -13 6 -13
2 0 -3 -12 1 -27 8 -36 17 -141 42 -149 35 -3 -4 -16 0 -29 6 -38 20 -292 17
-395 -4z"/>
</g>
</svg>
